<svg xmlns="http://www.w3.org/2000/svg" xmlns:xlink="http://www.w3.org/1999/xlink" id="Layer_1" x="0" y="0" version="1.1" viewBox="0 0 1600 2200" style="enable-background:new 0 0 1600 2200" xml:space="preserve"><style type="text/css">.st0{fill:#067eee}.st1{fill:#feb62c}.st2{fill:#2b379f}.st3{fill:#fcfcfc}</style><g><path d="M1497.7,1389.2c-76.4-107-97.9-183.6-69.6-248.6c131.7-302.5,126.9-586.6-13.6-800.1 C1285,143.6,1046,21.7,790.2,21.7c-1,0-2.1,0-3.2,0c-259.9,1-500.7,131.5-628.6,340.6C23.2,583.4,29.7,865.1,176.9,1155.5 c50.3,99.2,54.4,148.9-19.9,248C41.7,1557.3,14.6,1796.8,38.3,1954.3c9.4,62.3,31.2,144.3,82.2,181.4 c39.1,28.4,217,42.7,529.9,42.7c45.8,0,94.6-0.3,146.2-0.9c163.6-2,601.2-12.4,661.1-37.1c38.5-15.8,67.5-56.7,86.1-121.6 C1593.6,1845.6,1567.3,1486.7,1497.7,1389.2z" class="st0"/><g><circle cx="794.6" cy="759.8" r="555.3" class="st1"/><g><polygon points="624.4 691 688.8 755.4 730.9 713.2 666.5 648.8 730.9 584.4 688.8 542.2 624.4 606.6 559.9 542.2 517.8 584.4 582.2 648.8 517.8 713.2 559.9 755.4" class="st2"/><polygon points="964.8 691 1029.2 755.4 1071.3 713.2 1006.9 648.8 1071.3 584.4 1029.2 542.2 964.8 606.6 900.3 542.2 858.2 584.4 922.6 648.8 858.2 713.2 900.3 755.4" class="st2"/></g><rect width="720.4" height="63.3" x="434.4" y="844.2" class="st2"/></g><path d="M525.2,1738.8c1.9-64.8,4.7-129.1,9.8-189.2l-89.2-7.6c-5.4,63.1-8.2,129.9-10.2,197c-26.7,0-55.9,0-90.9,0.3 c27.5-58.8,48.1-99.1,75.8-153.4c16-31.4,34.3-67.2,57.5-113.5l-80.1-40.1c-23,46.1-41.2,81.6-57.2,112.8 c-37.3,73-61.9,121.2-107,221.5l-29,64.4l70.6-1.2c67.9-1.2,116-1.3,158-1.2c-0.1,5-0.2,10.1-0.3,15.1 c-1.3,57.4-2.5,111.6-4.8,161.1l89.5,4c2.3-50.5,3.5-105.2,4.9-163.1c0.1-5.8,0.3-11.6,0.4-17.3c22.3-0.2,46.2-0.5,73.6-1.2 l-2.1-89.5C568.6,1738.3,546.2,1738.6,525.2,1738.8z M1382.3,1737.6c-25.9,0.6-48.2,0.9-69.2,1.1c2-64.8,4.7-129.1,9.8-189.2 l-89.2-7.6c-5.4,63.1-8.2,129.9-10.2,197c-26.7,0-55.9,0-90.9,0.3c27.5-58.8,48.1-99.2,75.8-153.4c16-31.4,34.3-67.2,57.5-113.5 l-80.1-40.1c-23,46-41.2,81.6-57.1,112.8c-37.3,73-61.9,121.2-107.1,221.5l-29,64.4l70.6-1.2c67.9-1.2,116.1-1.3,158-1.2 c-0.1,5-0.2,10-0.3,15c-1.3,57.4-2.6,111.6-4.8,161.2l89.5,4c2.3-50.6,3.5-105.3,4.9-163.2c0.1-5.7,0.3-11.5,0.4-17.3 c22.3-0.2,46.2-0.5,73.6-1.2L1382.3,1737.6z M959.6,1689.6c0.4-177.8-80.5-218.5-128.7-227l-3.7-0.7h-3.8 c-103,0-133.4,70-149.8,107.6c-33.4,76.9-33,189.9-29.7,250.4c1.7,30.9,12.7,135,85.6,175.4c14.2,7.9,33.2,14.6,56.9,14.6 c24.6,0,54.1-7.2,88.6-27.5c91.7-54,87.9-176.9,85.4-258.2C959.9,1711.9,959.6,1700.2,959.6,1689.6z M830.3,1903.1 c-17.6,10.4-42,20.8-58.2,11.8c-20.3-11.3-36.3-52.4-38.9-99.9c-4.8-88.9,3.3-164.7,22.1-208.1c16.2-37.2,26.2-52.1,63.6-53.2 c17.7,4.8,51.3,28.1,51.1,135.6c0,11.8,0.4,24.5,0.8,37.9C872.7,1790.3,875.4,1876.5,830.3,1903.1z" class="st3"/></g></svg>